<svg xmlns="http://www.w3.org/2000/svg" width="50.234" height="44.688" viewBox="0 0 40.188 35.75">
	<path fill="#4caf50" d="M20.9,7.945V0H0.8V35.763H41V7.945H20.9ZM8.844,31.789H4.824V27.815h4.02v3.974Zm0-7.948H4.824V19.867h4.02v3.974Zm0-7.948H4.824V11.919h4.02v3.974Zm0-7.948H4.824V3.971h4.02V7.945Zm8.04,23.844h-4.02V27.815h4.02v3.974Zm0-7.948h-4.02V19.867h4.02v3.974Zm0-7.948h-4.02V11.919h4.02v3.974Zm0-7.948h-4.02V3.971h4.02V7.945Zm20.1,23.844H20.9V27.815h4.02V23.841H20.9V19.867h4.02V15.893H20.9V11.919h16.08v19.87Zm-4.02-15.9h-4.02v3.974h4.02V15.893Zm0,7.948h-4.02v3.974h4.02V23.841Z" transform="translate(-0.813)"/>
</svg>
