<svg xmlns="http://www.w3.org/2000/svg" width="46.665" height="49.998" viewBox="0 0 56 60">
    <path fill="#4caf50" d="M37.328,28.418V9.473L28,0l-9.329,9.47v6.315H0.013v44.2H55.985V28.418H37.328ZM12.451,53.673H6.233V47.36h6.219v6.313Zm0-12.628H6.233V34.734h6.219v6.312Zm0-12.628H6.233V22.1h6.219v6.316ZM31.109,53.673h-6.22V47.36h6.22v6.313Zm0-12.628h-6.22V34.734h6.22v6.312Zm0-12.628h-6.22V22.1h6.22v6.316Zm0-12.63h-6.22V9.473h6.22v6.315ZM49.766,53.673H43.547V47.36h6.219v6.313Zm0-12.628H43.547V34.734h6.219v6.312Z"/>
</svg>
