<svg xmlns="http://www.w3.org/2000/svg" width="50" height="49" viewBox="0 0 50 49">
	<path fill="#388e3c" fill-rule="evenodd" d="M19.54,12.663a23.175,23.175,0,0,1,8.54-7.592C34.04,1.853,39.721.454,43.694,0.419s4.392,0.98,4.392.98a7.478,7.478,0,0,1,.732,3.673c-0.035,2.379-1.5,10.845-4.392,15.673a34.6,34.6,0,0,1-7.563,9.061C35.12,31.24,30,35.159,20.622,34.7c2.614-1.959,7.32-5.877,7.32-5.877a7.241,7.241,0,0,0,1.708-1.959,18.559,18.559,0,0,0,.488-4.9,4.192,4.192,0,0,0-3.034-2.8,17.626,17.626,0,0,0-4.148.245A4.738,4.738,0,0,0,21,20.886c-0.732,1.014-6.588,8.571-6.588,8.571V27.112S15.357,17.281,19.54,12.663Zm2.684,24.1a55.118,55.118,0,0,0,7.564-1.224,32.9,32.9,0,0,0,7.319-3.918,17.663,17.663,0,0,1-.244,4.3,6.341,6.341,0,0,1-2.44,3.918c-1.68,1.144-13.907,7.837-13.907,7.837s-4.183,2.587-3.172-.386S22.224,36.766,22.224,36.766Zm-9.676-9.56a69.676,69.676,0,0,1,1.508-7.854,25.73,25.73,0,0,1,3.719-7.105,17.864,17.864,0,0,0-4.319.22A6.349,6.349,0,0,0,9.515,14.9C8.361,16.59,1.593,28.867,1.593,28.867s-1.528,4.2,1.458,3.2S12.547,27.206,12.547,27.206Zm-3.5,11.171L20.76,23.684l0.732-.979s1.619-1.8,2.476-1.993a6.667,6.667,0,0,1,2.4.279A1.635,1.635,0,0,1,28.324,22.7c-0.137,2.388-.244,2.939-0.244,2.939a3.47,3.47,0,0,1-1.464,2.2C25.243,28.918,11,40.336,11,40.336s-1.068,1.148-1.952.489-0.488-.489-0.488-0.489S7.981,39.6,9.049,38.377ZM34.16,10.208A4.908,4.908,0,1,1,29.3,15.116,4.886,4.886,0,0,1,34.16,10.208Zm7.07-4.4a2.454,2.454,0,1,1-2.441,2.454A2.448,2.448,0,0,1,41.231,5.811Z"/>
</svg>