<svg xmlns="http://www.w3.org/2000/svg" width="16.27" height="28" viewBox="0 0 16.27 28">
  <path fill="#4caf50" d="M14.38,0H1.89A1.9,1.9,0,0,0,0,1.89V26.11A1.9,1.9,0,0,0,1.89,28H14.38a1.9,1.9,0,0,0,1.89-1.89V1.89A1.9,1.9,0,0,0,14.38,0ZM4.68,1.61H11.2c.21,0,.38.34.38.77s-.17.75-.38.75H4.68c-.21,0-.38-.33-.38-.75S4.47,1.61,4.68,1.61ZM7.91,26.89a2.16,2.16,0,1,1,2.16-2.16A2.15,2.15,0,0,1,7.91,26.89Zm6.37-16.63L6.22,18.63a.46.46,0,0,1-.35.15.45.45,0,0,1-.35-.15L1.59,14.39l-.1-.15a.55.55,0,0,1-.15-.36.54.54,0,0,1,.15-.35l.71-.71a.49.49,0,0,1,.71,0l0,.05,2.77,3a.24.24,0,0,0,.35,0l6.75-7h.05a.49.49,0,0,1,.71,0l.7.71A.48.48,0,0,1,14.28,10.26Z" transform="translate(0 0)"/>
</svg>